<?xml version="1.0" encoding="UTF-8" standalone="no"?>
<!-- Created with Inkscape (http://www.inkscape.org/) -->

<svg
   version="1.1"
   id="svg2"
   width="2666.6667"
   height="2666.6667"
   viewBox="0 0 2666.6667 2666.6667"
   sodipodi:docname="bookmark.eps"
   xmlns:inkscape="http://www.inkscape.org/namespaces/inkscape"
   xmlns:sodipodi="http://sodipodi.sourceforge.net/DTD/sodipodi-0.dtd"
   xmlns="http://www.w3.org/2000/svg"
   xmlns:svg="http://www.w3.org/2000/svg">
  <defs
     id="defs6" />
  <sodipodi:namedview
     id="namedview4"
     pagecolor="#ffffff"
     bordercolor="#000000"
     borderopacity="0.25"
     inkscape:showpageshadow="2"
     inkscape:pageopacity="0.0"
     inkscape:pagecheckerboard="0"
     inkscape:deskcolor="#d1d1d1" />
  <g
     id="g8"
     inkscape:groupmode="layer"
     inkscape:label="ink_ext_XXXXXX"
     transform="matrix(1.3333333,0,0,-1.3333333,0,2666.6667)">
    <g
       id="g10"
       transform="scale(0.1)">
      <path
         d="m 10000,7996 c 139.1,0 272,-51.8 374.4,-145.9 L 13726.3,4771 c 13.3,-12.2 28.4,-14.7 44.9,-7.5 16.4,7.3 24.8,20.1 24.8,38.1 v 9856.9 c 0,320.9 -261.1,582 -582,582 H 6786 c -320.92,0 -582,-261.1 -582,-582 V 4801.6 c 0,-18 8.36,-30.8 24.84,-38.1 16.48,-7.2 31.56,-4.7 44.82,7.5 l 3351.9,3079.1 c 102.41,94.1 235.39,145.9 374.44,145.9 z m 3752.5,-3636.9 c -107.6,0 -212.8,40.1 -296.8,117.3 l -3351.9,3079.1 c -59.2,54.4 -148.44,54.4 -207.63,0 L 6544.26,4476.4 C 6413.3,4356.1 6230.79,4325.8 6067.97,4397.3 5905.15,4468.8 5804,4623.7 5804,4801.6 v 9856.9 c 0,541.4 440.52,982 982,982 h 6428 c 541.5,0 982,-440.6 982,-982 V 4801.6 c 0,-177.9 -101.1,-332.8 -264,-404.3 -58.4,-25.7 -119.3,-38.2 -179.5,-38.2"
         style="fill:#100f0d;fill-opacity:1;fill-rule:nonzero;stroke:none"
         id="path12" />
    </g>
  </g>
</svg>
