<?xml version="1.0" encoding="UTF-8" standalone="no"?>
<!-- Created with Inkscape (http://www.inkscape.org/) -->

<svg
   version="1.1"
   id="svg2"
   width="5104"
   height="5105.3335"
   viewBox="0 0 5104 5105.3335"
   sodipodi:docname="vecteezy_trash-can-vector-icon-flat-symbol-design-of-trash-can-or_5723775.eps"
   xmlns:inkscape="http://www.inkscape.org/namespaces/inkscape"
   xmlns:sodipodi="http://sodipodi.sourceforge.net/DTD/sodipodi-0.dtd"
   xmlns="http://www.w3.org/2000/svg"
   xmlns:svg="http://www.w3.org/2000/svg">
  <defs
     id="defs6" />
  <sodipodi:namedview
     id="namedview4"
     pagecolor="#ffffff"
     bordercolor="#000000"
     borderopacity="0.25"
     inkscape:showpageshadow="2"
     inkscape:pageopacity="0.0"
     inkscape:pagecheckerboard="0"
     inkscape:deskcolor="#d1d1d1" />
  <g
     id="g8"
     inkscape:groupmode="layer"
     inkscape:label="ink_ext_XXXXXX"
     transform="matrix(1.3333333,0,0,-1.3333333,0,5105.3333)">
    <g
       id="g10"
       transform="scale(0.1)">
      <path
         d="M 0.429688,38283.2 H 38278.1 c 0,-12759.2 0,-25518.4 0,-38277.60625 -12759.2,0 -25518.5,0 -38277.670312,0 0,12759.20625 0,25518.40625 0,38277.60625"
         style="fill:#ffffff;fill-opacity:1;fill-rule:nonzero;stroke:none"
         id="path12" />
      <path
         d="m 19165.6,27485 h 95 l 94.6,-8.7 2.5,-0.5 90.9,-17 91.3,-25.9 88.6,-34.4 85,-42.3 80.8,-50 75.7,-57.3 70.2,-63.9 64,-70.2 57.2,-75.8 50,-80.8 42.4,-85 6.5,-16.8 27.8,-71.8 12.7,-44.7 -1976.4,-1.8 10.6,37.6 28,75.8 1.4,3.1 32.4,70.2 39.5,70.5 44.8,67.1 50,63.4 53.1,57.4 72.1,65.7 75.7,57.3 80.8,50 85,42.3 88.6,34.4 91.3,25.9 4.9,0.9 88.5,16.6 z m -34.1,1477.2 c -22.7,0 -45.5,-1 -68.1,-3.1 l -162.6,-15.1 c -22.7,-2.1 -45.2,-5.2 -67.6,-9.4 l -160.5,-30 c -22.3,-4.2 -44.5,-9.4 -66.4,-15.6 l -157,-44.7 c -21.9,-6.2 -43.5,-13.5 -64.7,-21.7 l -152.3,-59 c -21.2,-8.2 -42,-17.4 -62.3,-27.5 l -146.2,-72.8 c -20.4,-10.1 -40.3,-21.2 -59.6,-33.2 l -138.8,-86 c -19.4,-11.9 -38.1,-24.8 -56.3,-38.5 l -130.3,-98.4 c -18.2,-13.7 -35.7,-28.3 -52.5,-43.6 l -120.6,-110 c -15.6,-14.2 -30.5,-29 -44.8,-44.5 l -94.2,-101.9 c -13.2,-14.1 -25.7,-28.9 -37.7,-44.1 l -85.9,-109 c -12,-15.2 -23.4,-30.8 -34.1,-46.9 l -77.1,-115.4 c -10.8,-16.1 -20.9,-32.5 -30.3,-49.4 l -67.8,-121.1 c -9.5,-16.9 -18.3,-34.1 -26.4,-51.7 l -58.1,-126 c -8.1,-17.6 -15.5,-35.5 -22.2,-53.6 l -48,-130.2 c -6.7,-18.2 -12.7,-36.6 -17.9,-55.2 l -37.7,-133.6 c -5.3,-18.6 -9.8,-37.4 -13.5,-56.4 l -27.1,-136.1 c -1.7,-8.4 -3.2,-16.9 -4.6,-25.3 -1.7,-10.6 -3.2,-21.3 -4.5,-32 l -10,-84.5 -4751.6,-4.4 c -622.1,-0.6 -1125.9,-505.4 -1125.4,-1127.5 0.6,-621.7 504.8,-1125.4 1126.4,-1125.4 0.4,0 0.7,0 1.1,0 l 14435.8,13.5 c 622.1,0.6 1125.9,505.3 1125.3,1127.5 -0.6,621.7 -504.7,1125.3 -1126.3,1125.3 -0.4,0 -0.8,0 -1.1,0 l -4706,-4.4 -2.7,28.9 c -2.1,22.7 -5.3,45.3 -9.5,67.6 l -3.7,20 -26.3,140.5 c -4.1,22.4 -9.4,44.6 -15.6,66.4 l -44.7,157.1 c -6.2,21.8 -13.4,43.4 -21.6,64.6 l -59,152.3 c -8.2,21.2 -17.4,42 -27.6,62.4 l -72.7,146.2 c -10.2,20.3 -21.3,40.2 -33.2,59.5 l -86,138.9 c -12,19.3 -24.8,38.1 -38.5,56.2 l -98.4,130.3 c -13.7,18.2 -28.3,35.7 -43.6,52.5 l -110,120.7 c -15.3,16.8 -31.4,32.9 -48.3,48.2 l -120.6,110 c -16.8,15.3 -34.3,29.9 -52.5,43.6 l -130.3,98.4 c -18.2,13.7 -36.9,26.6 -56.3,38.5 l -138.8,86 c -19.3,12 -39.2,23.1 -59.6,33.2 l -146.2,72.8 c -20.3,10.1 -41.1,19.3 -62.4,27.5 l -152.2,59 c -21.2,8.2 -42.8,15.5 -64.7,21.7 l -157,44.7 c -21.9,6.2 -44.1,11.4 -66.4,15.6 l -160.5,30 c -22.4,4.2 -45,7.3 -67.6,9.4 l -162.6,15.1 c -22.6,2.1 -45.4,3.1 -68.1,3.1 z m 97.1,-7553.4 c -418.7,0 -758.1,-339.5 -758.1,-758.2 v -8983.2 c 0,-418.7 339.4,-758.1 758.1,-758.1 418.7,0 758.2,339.4 758.2,758.1 v 8983.2 c 0,418.7 -339.5,758.2 -758.2,758.2 z m -3297.2,-39.9 c -418.7,0 -758.1,-339.5 -758.1,-758.2 v -8983.1 c 0,-418.7 339.4,-758.2 758.1,-758.2 418.8,0 758.2,339.5 758.2,758.2 v 8983.1 c 0,418.7 -339.4,758.2 -758.2,758.2 z m 6575.6,-33.7 c -418.8,0 -758.2,-339.4 -758.2,-758.1 v -8983.2 c 0,-418.7 339.4,-758.1 758.2,-758.1 418.7,0 758.1,339.4 758.1,758.1 v 8983.2 c 0,418.7 -339.4,758.1 -758.1,758.1 z m -9328.9,2655.1 v -0.1 l -720,0.1 h -2.8 l -717.3,-0.1 c -4.1,-30.9 -6.1,-62.5 -6.1,-94.6 V 13011.4 c 0,-5.7 0,-11.5 0.2,-17.3 31.4,-1316.8 27.6,-3144.33 1030.4,-4147.11 1000.2,-1000.23 2835.8,-1011.17 4164.3,-1052.97 7.6,-0.23 15.2,-0.35 22.8,-0.35 h 4491.6 c 3.8,0 7.6,0.04 11.4,0.08 1306.9,20.55 3129.4,0.98 4134.9,1006.55 998.3,998.33 1020.9,2843.6 1070.9,4184 0.4,9.1 0.5,18.1 0.5,27.1 v 10832.5 c 0,2.7 0,5.4 0,8 h 0.1 -1.1 1 c -0.5,47.4 -5.5,93.6 -14.7,138.3 h 0.1 l -1422.8,0.1 -0.1,-0.1 c -9.2,-44.7 -14.2,-90.9 -14.7,-138.2 l 0.1,-0.1 h -0.1 c -0.1,-2.6 -0.1,-5.3 -0.1,-8 V 13022.7 h -0.1 c -60,-1600.1 -148.7,-2698.2 -645.9,-3195.43 -491,-491.02 -1550.9,-556.41 -3125.1,-581.29 l -4474.4,0.04 c -1590.4,50.23 -2675.9,132.14 -3171.7,627.93 -493.3,493.35 -567.2,1564.65 -605.2,3144.85 v 10833.2 43.6 c 0,32.1 -2.1,63.7 -6.1,94.7 z"
         style="fill:#6d6d6d;fill-opacity:1;fill-rule:nonzero;stroke:none"
         id="path14" />
    </g>
  </g>
</svg>
